<svg width="13" height="15" viewBox="0 0 13 15" fill="none" xmlns="http://www.w3.org/2000/svg">
<path d="M5.99996 8.83317V14.1665H0.666626C0.666626 12.752 1.22853 11.3955 2.22872 10.3953C3.22892 9.39507 4.58547 8.83317 5.99996 8.83317ZM5.99996 8.1665C3.78996 8.1665 1.99996 6.3765 1.99996 4.1665C1.99996 1.9565 3.78996 0.166504 5.99996 0.166504C8.20996 0.166504 9.99996 1.9565 9.99996 4.1665C9.99996 6.3765 8.20996 8.1665 5.99996 8.1665ZM12 10.8332H12.6666V14.1665H7.33329V10.8332H7.99996V10.1665C7.99996 9.63607 8.21067 9.12736 8.58575 8.75229C8.96082 8.37722 9.46953 8.1665 9.99996 8.1665C10.5304 8.1665 11.0391 8.37722 11.4142 8.75229C11.7892 9.12736 12 9.63607 12 10.1665V10.8332ZM10.6666 10.8332V10.1665C10.6666 9.98969 10.5964 9.82012 10.4714 9.6951C10.3463 9.57008 10.1768 9.49984 9.99996 9.49984C9.82315 9.49984 9.65358 9.57008 9.52855 9.6951C9.40353 9.82012 9.33329 9.98969 9.33329 10.1665V10.8332H10.6666Z" fill="#828282"/>
</svg>
