<svg width="16" height="16" viewBox="0 0 16 16" fill="none" xmlns="http://www.w3.org/2000/svg">
<path fill-rule="evenodd" clip-rule="evenodd" d="M2.34296 13.6572C1.60007 12.9143 1.01078 12.0324 0.608735 11.0618C0.206687 10.0911 -0.000244133 9.05081 -0.000244141 8.00021C-0.000244148 6.9496 0.206687 5.90929 0.608735 4.93866C1.01078 3.96803 1.60007 3.08609 2.34296 2.34321C3.08585 1.60032 3.96779 1.01103 4.93842 0.608979C5.90905 0.206931 6.94936 -7.82759e-09 7.99996 0C9.05056 7.8276e-09 10.0909 0.206931 11.0615 0.608979C12.0321 1.01103 12.9141 1.60032 13.657 2.34321C15.1573 3.84354 16.0002 5.87842 16.0002 8.00021C16.0002 10.122 15.1573 12.1569 13.657 13.6572C12.1566 15.1575 10.1217 16.0004 7.99996 16.0004C5.87818 16.0004 3.84329 15.1575 2.34296 13.6572ZM6.02996 4.97021C5.88779 4.83773 5.69974 4.7656 5.50544 4.76903C5.31114 4.77246 5.12575 4.85117 4.98834 4.98858C4.85093 5.126 4.77221 5.31138 4.76879 5.50568C4.76536 5.69998 4.83748 5.88803 4.96996 6.03021L6.93996 8.00021L4.96996 9.97021C4.89628 10.0389 4.83717 10.1217 4.79618 10.2137C4.75519 10.3057 4.73315 10.405 4.73137 10.5057C4.72959 10.6064 4.74812 10.7064 4.78584 10.7998C4.82356 10.8932 4.8797 10.978 4.95092 11.0492C5.02214 11.1205 5.10698 11.1766 5.20036 11.2143C5.29375 11.252 5.39378 11.2706 5.49448 11.2688C5.59519 11.267 5.6945 11.245 5.7865 11.204C5.8785 11.163 5.9613 11.1039 6.02996 11.0302L7.99996 9.06021L9.96996 11.0302C10.0386 11.1039 10.1214 11.163 10.2134 11.204C10.3054 11.245 10.4047 11.267 10.5054 11.2688C10.6061 11.2706 10.7062 11.252 10.7996 11.2143C10.8929 11.1766 10.9778 11.1205 11.049 11.0492C11.1202 10.978 11.1764 10.8932 11.2141 10.7998C11.2518 10.7064 11.2703 10.6064 11.2686 10.5057C11.2668 10.405 11.2447 10.3057 11.2037 10.2137C11.1628 10.1217 11.1036 10.0389 11.03 9.97021L9.05996 8.00021L11.03 6.03021C11.1036 5.96154 11.1628 5.87874 11.2037 5.78674C11.2447 5.69474 11.2668 5.59543 11.2686 5.49473C11.2703 5.39403 11.2518 5.294 11.2141 5.20061C11.1764 5.10722 11.1202 5.02239 11.049 4.95117C10.9778 4.87995 10.8929 4.8238 10.7996 4.78608C10.7062 4.74836 10.6061 4.72984 10.5054 4.73161C10.4047 4.73339 10.3054 4.75543 10.2134 4.79642C10.1214 4.83742 10.0386 4.89652 9.96996 4.97021L7.99996 6.94021L6.02996 4.97021Z" fill="#1A242A"/>
</svg>
