<svg width="16" height="16" viewBox="0 0 16 16" fill="none" xmlns="http://www.w3.org/2000/svg">
<path d="M7.99996 4.20333C7.24901 4.20333 6.51492 4.42601 5.89053 4.84322C5.26614 5.26043 4.77948 5.85342 4.49211 6.5472C4.20473 7.24099 4.12954 8.00442 4.27604 8.74094C4.42255 9.47746 4.78416 10.154 5.31517 10.685C5.84617 11.216 6.52271 11.5776 7.25923 11.7241C7.99575 11.8706 8.75917 11.7954 9.45296 11.5081C10.1468 11.2207 10.7397 10.734 11.1569 10.1096C11.5742 9.48524 11.7968 8.75116 11.7968 8.00021C11.7968 6.99321 11.3968 6.02746 10.6848 5.31541C9.9727 4.60336 9.00696 4.20333 7.99996 4.20333ZM7.99996 10.9533C7.41589 10.9533 6.84493 10.7801 6.35929 10.4556C5.87365 10.1311 5.49514 9.66993 5.27163 9.13032C5.04811 8.5907 4.98963 7.99693 5.10358 7.42408C5.21753 6.85123 5.49878 6.32503 5.91179 5.91203C6.32479 5.49903 6.85099 5.21777 7.42384 5.10382C7.99669 4.98988 8.59046 5.04836 9.13007 5.27187C9.66969 5.49539 10.1309 5.8739 10.4554 6.35954C10.7799 6.84518 10.9531 7.41613 10.9531 8.00021C10.9531 8.78342 10.642 9.53456 10.0881 10.0884C9.53432 10.6422 8.78318 10.9533 7.99996 10.9533ZM15.3968 9.65958L14.3211 8.22521C14.3281 8.07052 14.3211 7.89474 14.3211 7.77521L15.3968 6.34083C15.4357 6.28933 15.4623 6.22958 15.4745 6.16619C15.4867 6.10281 15.4842 6.03747 15.4671 5.97521C15.2935 5.33802 15.0382 4.72592 14.7078 4.15411C14.6762 4.09869 14.6327 4.05099 14.5804 4.0145C14.5281 3.97801 14.4683 3.95365 14.4054 3.94317L12.6336 3.69005C12.5281 3.57755 12.4226 3.47208 12.3101 3.36661L12.057 1.59474C12.0478 1.5323 12.0247 1.47272 11.9894 1.42039C11.9541 1.36807 11.9075 1.32433 11.8531 1.29239C11.2776 0.964312 10.6635 0.709222 10.025 0.533018C9.9627 0.515986 9.89736 0.513468 9.83397 0.525657C9.77058 0.537847 9.71084 0.56442 9.65934 0.60333L8.23199 1.67911C8.07731 1.67442 7.92262 1.67442 7.76793 1.67911L6.34059 0.60333C6.28908 0.56442 6.22934 0.537847 6.16595 0.525657C6.10256 0.513468 6.03722 0.515986 5.97496 0.533018C5.33777 0.706695 4.72568 0.961931 4.15387 1.29239C4.09844 1.32394 4.05075 1.36744 4.01426 1.41975C3.97777 1.47205 3.9534 1.53183 3.94293 1.59474L3.68981 3.36661C3.57731 3.47208 3.47184 3.57755 3.36637 3.69005L1.59449 3.94317C1.53205 3.95238 1.47248 3.97548 1.42015 4.01077C1.36782 4.04606 1.32408 4.09264 1.29215 4.14708C0.964068 4.72255 0.708978 5.33665 0.532774 5.97521C0.515741 6.03747 0.513223 6.10281 0.525413 6.16619C0.537603 6.22958 0.564176 6.28933 0.603086 6.34083L1.67887 7.77521C1.67184 7.92989 1.67887 8.10567 1.67887 8.22521L0.603086 9.65958C0.564176 9.71108 0.537603 9.77083 0.525413 9.83422C0.513223 9.8976 0.515741 9.96294 0.532774 10.0252C0.706451 10.6624 0.961687 11.2745 1.29215 11.8463C1.32244 11.9027 1.3656 11.9512 1.41813 11.9879C1.47065 12.0245 1.53107 12.0483 1.59449 12.0572L3.36637 12.3104L3.68981 12.6338L3.94293 14.4057C3.9534 14.4686 3.97777 14.5284 4.01426 14.5807C4.05075 14.633 4.09844 14.6765 4.15387 14.708C4.7263 15.0372 5.33822 15.2924 5.97496 15.4674L6.08746 15.4815C6.17874 15.4815 6.26756 15.4518 6.34059 15.3971L7.76793 14.3213H8.23199L9.65934 15.3971C9.71084 15.436 9.77058 15.4626 9.83397 15.4748C9.89736 15.4869 9.9627 15.4844 10.025 15.4674C10.6639 15.2925 11.2782 15.0373 11.8531 14.708C11.9075 14.6761 11.9541 14.6323 11.9894 14.58C12.0247 14.5277 12.0478 14.4681 12.057 14.4057L12.3101 12.6338C12.4226 12.5283 12.5421 12.4018 12.6265 12.3104L14.4054 12.0572C14.4679 12.048 14.5274 12.0249 14.5798 11.9896C14.6321 11.9543 14.6758 11.9078 14.7078 11.8533C15.0359 11.2779 15.2909 10.6638 15.4671 10.0252C15.4842 9.96294 15.4867 9.8976 15.4745 9.83422C15.4623 9.77083 15.4357 9.71108 15.3968 9.65958ZM14.075 11.2486L12.3664 11.4947C12.2713 11.5108 12.1832 11.5549 12.1132 11.6213C12.0289 11.7197 11.7687 11.9869 11.6351 12.1065C11.5594 12.1741 11.5096 12.2662 11.4945 12.3666L11.2484 14.0752C10.8504 14.2916 10.431 14.466 9.99684 14.5955L8.61168 13.5549C8.53201 13.4981 8.43507 13.4707 8.33746 13.4775H7.66246C7.56485 13.4707 7.46791 13.4981 7.38824 13.5549L6.00309 14.5955C5.56787 14.4691 5.1481 14.2946 4.75152 14.0752L4.50543 12.3666C4.4903 12.2662 4.44056 12.1741 4.36481 12.1065C4.1974 11.9602 4.04002 11.8028 3.89371 11.6354C3.82603 11.5596 3.73401 11.5099 3.63356 11.4947L1.92496 11.2486C1.70855 10.8506 1.53417 10.4312 1.40465 9.99708L2.44527 8.61192C2.50112 8.53411 2.53067 8.44051 2.52965 8.34474C2.52262 8.21817 2.51559 7.84552 2.52262 7.66271C2.52942 7.5651 2.50208 7.46816 2.44527 7.38849L1.40465 6.00333C1.53108 5.56812 1.70559 5.14834 1.92496 4.75177L3.63356 4.50567C3.73401 4.49054 3.82603 4.44081 3.89371 4.36505C4.04002 4.19765 4.1974 4.04026 4.36481 3.89396C4.44056 3.82627 4.4903 3.73425 4.50543 3.6338L4.75152 1.92521C5.14952 1.70879 5.56897 1.53441 6.00309 1.40489L7.38824 2.44552C7.46791 2.50232 7.56485 2.52966 7.66246 2.52286C7.88746 2.51817 8.11246 2.51817 8.33746 2.52286C8.43507 2.52966 8.53201 2.50232 8.61168 2.44552L9.99684 1.40489C10.432 1.53132 10.8518 1.70584 11.2484 1.92521L11.4945 3.6338C11.5096 3.73425 11.5594 3.82627 11.6351 3.89396C11.8025 4.04026 11.9599 4.19765 12.1062 4.36505C12.1739 4.44081 12.2659 4.49054 12.3664 4.50567L14.075 4.75177C14.2914 5.14976 14.4658 5.56921 14.5953 6.00333L13.5546 7.38849C13.4988 7.4663 13.4692 7.5599 13.4703 7.65567C13.4773 7.78224 13.4843 8.15489 13.4773 8.33771C13.4705 8.43532 13.4978 8.53225 13.5546 8.61192L14.5953 9.99708C14.4688 10.4323 14.2943 10.8521 14.075 11.2486Z" fill="#445F6F"/>
</svg>
