<svg width="12" height="14" viewBox="0 0 12 14" fill="none" xmlns="http://www.w3.org/2000/svg">
<path d="M6.00001 5.9001C4.18401 5.9001 3.81601 3.1481 3.81601 3.1481C3.60001 1.7161 4.25601 0.100098 5.97601 0.100098C7.70401 0.100098 8.36001 1.7161 8.14401 3.1481C8.14401 3.1481 7.81601 5.9001 6.00001 5.9001ZM6.00001 7.9561L8.17601 6.5001C10.088 6.5001 11.792 8.3641 11.792 10.1241V12.1161C11.792 12.1161 8.87201 13.0201 6.00001 13.0201C3.08001 13.0201 0.208008 12.1161 0.208008 12.1161V10.1241C0.208008 8.3241 1.76001 6.5401 3.78401 6.5401L6.00001 7.9561Z" fill="#828282"/>
</svg>
